<?xml version="1.0" encoding="utf-8"?>
<!-- Generator: Adobe Illustrator 18.0.0, SVG Export Plug-In . SVG Version: 6.00 Build 0)  -->
<!DOCTYPE svg PUBLIC "-//W3C//DTD SVG 1.0//EN" "http://www.w3.org/TR/2001/REC-SVG-20010904/DTD/svg10.dtd">
<?xml-stylesheet type="text/css" href="../css/catalyst.css" ?>
<svg version="1.0" xmlns="http://www.w3.org/2000/svg" xmlns:xlink="http://www.w3.org/1999/xlink" x="0px" y="0px"
	 viewBox="0 0 1520 180" enable-background="new 0 0 1520 180" xml:space="preserve" id="svgLogo">
<g id="Layer_2">
	<g>
		<polygon fill="none" stroke="#FBF49C" stroke-width="5" stroke-miterlimit="10" points="153.7,105.4 104.7,133.8 55.6,105.4 
			55.6,48.8 104.7,20.4 153.7,48.8 		"/>
		<polyline fill="none" stroke="#FBF49C" stroke-width="5" stroke-miterlimit="10" points="154,105.4 154,48.8 203.1,20.4 
			252.2,48.8 285,30 		"/>
		<polyline fill="none" stroke="#FBF49C" stroke-width="5" stroke-miterlimit="10" points="24.4,122.8 55.6,104.8 104.7,133.1 
			104.7,170.4 		"/>
		<path fill="#4F53A3" d="M137.9,69.1"/>
		<path fill="#4F53A3" d="M98.4,46.2"/>
		<path fill="#4F53A3" d="M58.8,69.1"/>
		<path fill="#4F53A3" d="M58.8,114.7"/>
		<path fill="#4F53A3" d="M104.7,122.8"/>
		<path fill="#4F53A3" d="M144.2,99.9"/>
	</g>
	<path fill="#4F53A3" d="M105.1,86.8L105.1,86.8c-3.8,0-7-3.1-7-7V63.2c0-3.8,3.1-7,7-7h0c3.8,0,7,3.1,7,7v16.6
		C112,83.7,108.9,86.8,105.1,86.8z"/>
	<path fill="#4F53A3" d="M110,122.1h-1.3c-1.8,0-3.3-1.5-3.3-3.3V89.6c0-1.8,1.5-3.3,3.3-3.3h1.3c1.8,0,3.3,1.5,3.3,3.3v29.2
		C113.4,120.7,111.9,122.1,110,122.1z"/>
	<path fill="#4F53A3" d="M145.4,60.2v0.3c0,1.8-1.5,3.3-3.3,3.3h-26.7c-1.8,0-3.3-1.5-3.3-3.3v-0.3c0-1.8,1.5-3.3,3.3-3.3H142
		C143.9,56.8,145.4,58.3,145.4,60.2z"/>
	<path fill="#4F53A3" d="M139.4,45.4l0.2,0.3c1,1.6,0.5,3.6-1.1,4.6l-21.3,13.1c-1.6,1-3.6,0.5-4.6-1.1l-0.2-0.3
		c-1-1.6-0.5-3.6,1.1-4.6l21.3-13.1C136.4,43.3,138.5,43.8,139.4,45.4z"/>
	<path fill="#424887" d="M115.4,56.8c-0.5,0-0.9,0.1-1.3,0.3l-0.5,0.3c-0.9,0.6-1.5,1.5-1.6,2.6c0,0.1,0,0.1,0,0.2
		c0,0.6,0.1,1.3,0.5,1.8l0.2,0.3c1,1.6,3,2,4.6,1.1l10.5-6.5H115.4z"/>
	<path fill="#4F53A3" d="M64.7,60.2v0.3c0,1.8,1.5,3.3,3.3,3.3h26.7c1.8,0,3.3-1.5,3.3-3.3v-0.3c0-1.8-1.5-3.3-3.3-3.3H68.1
		C66.2,56.8,64.7,58.3,64.7,60.2z"/>
	<path fill="#4F53A3" d="M70.7,45.4l-0.2,0.3c-1,1.6-0.5,3.6,1.1,4.6l21.3,13.1c1.6,1,3.6,0.5,4.6-1.1l0.2-0.3
		c1-1.6,0.5-3.6-1.1-4.6L75.2,44.3C73.7,43.3,71.6,43.8,70.7,45.4z"/>
	<path fill="#424887" d="M94.7,56.8c0.5,0,0.9,0.1,1.3,0.3l0.5,0.3C97.4,58,98,58.9,98,60c0,0.1,0,0.1,0,0.2c0,0.6-0.1,1.3-0.5,1.8
		l-0.2,0.3c-1,1.6-3,2-4.6,1.1l-10.5-6.5H94.7z"/>
	<path fill="#4F53A3" d="M126.6,116.6l-1,0.6c-1.6,1-3.6,0.5-4.6-1.1l-14.8-24c-1-1.6-0.5-3.6,1.1-4.6l1-0.6c1.6-1,3.6-0.5,4.6,1.1
		l14.8,24C128.6,113.5,128.2,115.6,126.6,116.6z"/>
	<path fill="#424887" d="M112.4,87.5C112.4,87.5,112.4,87.4,112.4,87.5c-1.1-1.2-2.9-1.5-4.2-0.6l-1,0.6c-1.6,1-2.1,3-1.1,4.6
		l7.1,11.6V89.6c0-0.7-0.2-1.3-0.5-1.8C112.6,87.7,112.5,87.6,112.4,87.5z"/>
	<path fill="#4F53A3" d="M99.7,122.1h1.3c1.8,0,3.3-1.5,3.3-3.3V89.6c0-1.8-1.5-3.3-3.3-3.3h-1.3c-1.8,0-3.3,1.5-3.3,3.3v29.2
		C96.4,120.6,97.9,122.1,99.7,122.1z"/>
	<path fill="#4F53A3" d="M83.1,116.6l1,0.6c1.6,1,3.6,0.5,4.6-1.1l14.8-24c1-1.6,0.5-3.6-1.1-4.6l-1-0.6c-1.6-1-3.6-0.5-4.6,1.1
		L82,112C81.1,113.5,81.6,115.6,83.1,116.6z"/>
	<path fill="#424887" d="M97.3,87.5C97.3,87.5,97.4,87.4,97.3,87.5c1.1-1.2,2.9-1.5,4.2-0.6l1,0.6c1.6,1,2.1,3,1.1,4.6l-7.1,11.6
		V89.6c0-0.7,0.2-1.3,0.5-1.8C97.2,87.7,97.2,87.6,97.3,87.5z"/>
	<circle fill="#4F53A3" cx="105.1" cy="49.4" r="5.8"/>
</g>
</svg>
